<?xml version="1.0" encoding="UTF-8"?>
<svg width="30px" height="30px" viewBox="0 0 30 30" version="1.1" xmlns="http://www.w3.org/2000/svg" xmlns:xlink="http://www.w3.org/1999/xlink">
    <!-- Generator: Sketch 45.1 (43504) - http://www.bohemiancoding.com/sketch -->
    <title>article</title>
    <desc>Created with Sketch.</desc>
    <defs></defs>
    <g id="Page-1" stroke="none" stroke-width="1" fill="none" fill-rule="evenodd" opacity="0.5">
        <g id="article" fill-rule="nonzero" fill="#FFFFFF">
            <g id="Group">
                <path d="M30,3.387 C30,1.51933333 28.4806667,0 26.613,0 L9.19366667,0 C7.326,0 5.80666667,1.51933333 5.80666667,3.387 L5.80666667,14.5153333 L3.39633333,14.5153333 C1.56666667,14.5153333 0.0753333333,15.9743333 0.015,17.7893333 C0.006,17.826 0,17.864 0,17.9033333 L0,26.613 C0,28.4803333 1.51933333,30 3.387,30 L26.6126667,30 C28.4806667,30 30,28.4803333 30,26.613 L30,3.387 Z M0.967666667,26.613 L0.967666667,17.9933333 C0.973333333,17.964 0.976666667,17.9336667 0.976666667,17.9026667 C0.976666667,16.5686667 2.062,15.4833333 3.396,15.4833333 L5.80633333,15.4833333 L5.80633333,26.613 C5.80633333,27.947 4.721,29.0323333 3.387,29.0323333 C2.053,29.0323333 0.967666667,27.947 0.967666667,26.613 Z M29.0323333,26.613 C29.0323333,27.947 27.947,29.0323333 26.613,29.0323333 L5.753,29.0323333 C6.382,28.417 6.774,27.5603333 6.774,26.613 L6.774,15.09 C6.77966667,15.0606667 6.783,15.0303333 6.783,14.9993333 C6.783,14.9683333 6.77966667,14.938 6.774,14.9086667 L6.774,3.387 C6.774,2.053 7.85933333,0.967666667 9.19333333,0.967666667 L26.6126667,0.967666667 C27.9466667,0.967666667 29.032,2.053 29.032,3.387 L29.032,26.613 L29.0323333,26.613 Z" id="Shape"></path>
                <path d="M23.7096667,19.074 L12.0966667,19.074 C11.8296667,19.074 11.6126667,19.2906667 11.6126667,19.558 C11.6126667,19.8253333 11.8293333,20.042 12.0966667,20.042 L23.7096667,20.042 C23.9766667,20.042 24.1936667,19.8253333 24.1936667,19.558 C24.1936667,19.2903333 23.9766667,19.074 23.7096667,19.074 Z" id="Shape"></path>
                <path d="M20.1193333,23.6313333 L12.097,23.6313333 C11.83,23.6313333 11.613,23.848 11.613,24.1153333 C11.613,24.3826667 11.8296667,24.5993333 12.097,24.5993333 L20.1193333,24.5993333 C20.3863333,24.5993333 20.6033333,24.3826667 20.6033333,24.1153333 C20.6033333,23.848 20.3866667,23.6313333 20.1193333,23.6313333 Z" id="Shape"></path>
                <path d="M22.742,5.40066667 L13.0646667,5.40066667 C12.2643333,5.40066667 11.613,6.05166667 11.613,6.85233333 L11.613,14.0323333 C11.613,14.8326667 12.264,15.484 13.0646667,15.484 L22.742,15.484 C23.5423333,15.484 24.1936667,14.833 24.1936667,14.0323333 L24.1936667,6.85233333 C24.1936667,6.052 23.5423333,5.40066667 22.742,5.40066667 Z M23.2256667,14.0323333 C23.2256667,14.299 23.0086667,14.5163333 22.7416667,14.5163333 L13.0646667,14.5163333 C12.798,14.5163333 12.5806667,14.2993333 12.5806667,14.0323333 L12.5806667,6.85233333 C12.5806667,6.58566667 12.7976667,6.36833333 13.0646667,6.36833333 L22.742,6.36833333 C23.0086667,6.36833333 23.226,6.58533333 23.226,6.85233333 L23.226,14.0323333 L23.2256667,14.0323333 Z" id="Shape"></path>
            </g>
        </g>
    </g>
</svg>