<?xml version="1.0" encoding="UTF-8"?>
<svg width="31px" height="31px" viewBox="0 0 31 31" version="1.1" xmlns="http://www.w3.org/2000/svg" xmlns:xlink="http://www.w3.org/1999/xlink">
    <!-- Generator: Sketch 45.1 (43504) - http://www.bohemiancoding.com/sketch -->
    <title>calendar</title>
    <desc>Created with Sketch.</desc>
    <defs></defs>
    <g id="Page-1" stroke="none" stroke-width="1" fill="none" fill-rule="evenodd">
        <g id="calendar" fill-rule="nonzero" fill="#858582">
            <path d="M26.0882353,4.02941176 L23.4411765,4.02941176 L23.4411765,1.38235294 C23.4411765,0.894941176 23.0462353,0.5 22.5588235,0.5 C22.0714118,0.5 21.6764706,0.894941176 21.6764706,1.38235294 L21.6764706,4.02941176 L16.3823529,4.02941176 L16.3823529,1.38235294 C16.3823529,0.894941176 15.9874118,0.5 15.5,0.5 C15.0125882,0.5 14.6176471,0.894941176 14.6176471,1.38235294 L14.6176471,4.02941176 L9.32352941,4.02941176 L9.32352941,1.38235294 C9.32352941,0.894941176 8.92858824,0.5 8.44117647,0.5 C7.95376471,0.5 7.55882353,0.894941176 7.55882353,1.38235294 L7.55882353,4.02941176 L4.91176471,4.02941176 C2.47894118,4.02941176 0.5,6.00835294 0.5,8.44117647 L0.5,26.0882353 C0.5,28.5210588 2.47894118,30.5 4.91176471,30.5 L26.0882353,30.5 C28.5210588,30.5 30.5,28.5210588 30.5,26.0882353 L30.5,8.44117647 C30.5,6.00835294 28.5210588,4.02941176 26.0882353,4.02941176 Z M28.7352941,26.0882353 C28.7352941,27.548 27.548,28.7352941 26.0882353,28.7352941 L4.91176471,28.7352941 C3.452,28.7352941 2.26470588,27.548 2.26470588,26.0882353 L2.26470588,12.8529412 L28.7352941,12.8529412 L28.7352941,26.0882353 Z M28.7352941,11.0882353 L2.26470588,11.0882353 L2.26470588,8.44117647 C2.26470588,6.98141176 3.452,5.79411765 4.91176471,5.79411765 L7.55882353,5.79411765 L7.55882353,8.44117647 C7.55882353,8.92858824 7.95376471,9.32352941 8.44117647,9.32352941 C8.92858824,9.32352941 9.32352941,8.92858824 9.32352941,8.44117647 L9.32352941,5.79411765 L14.6176471,5.79411765 L14.6176471,8.44117647 C14.6176471,8.92858824 15.0125882,9.32352941 15.5,9.32352941 C15.9874118,9.32352941 16.3823529,8.92858824 16.3823529,8.44117647 L16.3823529,5.79411765 L21.6764706,5.79411765 L21.6764706,8.44117647 C21.6764706,8.92858824 22.0714118,9.32352941 22.5588235,9.32352941 C23.0462353,9.32352941 23.4411765,8.92858824 23.4411765,8.44117647 L23.4411765,5.79411765 L26.0882353,5.79411765 C27.548,5.79411765 28.7352941,6.98141176 28.7352941,8.44117647 L28.7352941,11.0882353 Z" id="Shape"></path>
        </g>
    </g>
</svg>