<?xml version="1.0" encoding="UTF-8"?>
<svg width="25px" height="29px" viewBox="0 0 25 29" version="1.1" xmlns="http://www.w3.org/2000/svg" xmlns:xlink="http://www.w3.org/1999/xlink">
    <!-- Generator: Sketch 45.1 (43504) - http://www.bohemiancoding.com/sketch -->
    <title>notification</title>
    <desc>Created with Sketch.</desc>
    <defs></defs>
    <g id="Page-1" stroke="none" stroke-width="1" fill="none" fill-rule="evenodd">
        <g id="notification" transform="translate(-3.000000, -4.000000)" fill-rule="nonzero" fill="#858582">
            <g id="Group" transform="translate(17.863192, 18.975877) rotate(20.000000) translate(-17.863192, -18.975877) translate(4.863192, 3.975877)">
                <path d="M12.9961,1.4102 C13.7423,1.4102 14.3494,2.0173 14.3494,2.7635 L15.7027,2.7635 C15.7027,1.2711 14.4898,0.0582 12.9974,0.0582 C11.505,0.0582 10.2921,1.2711 10.2921,2.7635 L11.6454,2.7635 C11.6428,2.0173 12.2499,1.4102 12.9961,1.4102 Z" id="Shape"></path>
                <path d="M12.9909,27.7898 C12.1355,27.7898 11.349,27.4921 10.829,26.9708 C10.582,26.7238 10.2895,26.3143 10.2895,25.7618 L8.9362,25.7592 C8.9349,26.5522 9.2664,27.3218 9.8709,27.9276 C10.6418,28.6998 11.7793,29.1431 12.9896,29.1431 C15.2269,29.1431 17.0495,27.626 17.0534,25.7618 L15.7001,25.7592 C15.6988,26.8798 14.4833,27.7898 12.9909,27.7898 Z" id="Shape"></path>
                <path d="M25.1563,22.2102 C25.2434,21.2599 25.3461,19.8234 24.7234,18.6742 L24.6155,18.5611 C24.4296,18.3401 24.2099,18.136 23.9772,17.9215 C23.0672,17.0778 21.8205,15.9221 21.5527,12.5239 C21.19,8.009 18.1337,3.4395 12.9961,3.4395 C7.8585,3.4395 4.8022,8.009 4.4395,12.5239 C4.1704,15.9208 2.925,17.0765 2.015,17.9202 C1.7823,18.136 1.5626,18.3401 1.3767,18.5598 L1.3,18.6729 C0.6773,19.8221 0.7488,21.2573 0.8372,22.2089 C0.8606,22.4598 0.8216,22.6782 0.8216,22.8485 L0.8216,23.245 L1.2272,23.44 C4.0898,25.0403 7.8416,25.7852 12.9662,25.7852 C18.0921,25.7852 21.8868,25.0403 24.7507,23.44 L25.1719,23.2463 L25.1719,22.8498 C25.1719,22.6795 25.1329,22.4598 25.1563,22.2102 Z M23.7484,22.0854 C23.7367,22.2089 23.7263,22.3259 23.7185,22.4351 C21.1055,23.7962 17.6839,24.4319 12.9974,24.4319 C8.3109,24.4319 4.8893,23.7962 2.275,22.4351 C2.2659,22.3259 2.2555,22.2089 2.2451,22.0854 C2.1697,21.2716 2.0683,20.1653 2.4583,19.3801 C2.5857,19.2384 2.7495,19.0863 2.9367,18.9121 C3.9494,17.9735 5.4795,16.5539 5.7902,12.6318 C6.0931,8.8566 8.4786,4.7928 12.9974,4.7928 C17.5162,4.7928 19.9017,8.8566 20.2046,12.6318 C20.5153,16.5552 22.0467,17.9748 23.0594,18.9134 C23.2466,19.0876 23.4104,19.2397 23.5378,19.3814 C23.9252,20.164 23.8225,21.2716 23.7484,22.0854 Z" id="Shape"></path>
            </g>
        </g>
    </g>
</svg>