<?xml version="1.0" encoding="UTF-8"?>
<svg width="24px" height="24px" viewBox="0 0 24 24" version="1.1" xmlns="http://www.w3.org/2000/svg" xmlns:xlink="http://www.w3.org/1999/xlink">
    <!-- Generator: Sketch 45.1 (43504) - http://www.bohemiancoding.com/sketch -->
    <title>search</title>
    <desc>Created with Sketch.</desc>
    <defs></defs>
    <g id="Page-1" stroke="none" stroke-width="1" fill="none" fill-rule="evenodd" opacity="0.5">
        <g id="search" fill-rule="nonzero" fill="#FFFFFF">
            <path d="M23.8243902,23.004878 L18.6439024,17.8243902 C20.3414634,15.9219512 21.3658537,13.4341463 21.3658537,10.6829268 C21.3658537,4.8 16.5658537,0 10.6829268,0 C4.8,0 0,4.77073171 0,10.6829268 C0,16.595122 4.8,21.395122 10.6829268,21.395122 C13.4341463,21.395122 15.9219512,20.3414634 17.8243902,18.6439024 L23.004878,23.8243902 C23.1219512,23.9414634 23.2682927,24 23.4146341,24 C23.5609756,24 23.7073171,23.9414634 23.8243902,23.8243902 C24.0585366,23.5902439 24.0585366,23.2390244 23.8243902,23.004878 Z M10.6829268,20.195122 C5.44390244,20.195122 1.17073171,15.9219512 1.17073171,10.6829268 C1.17073171,5.44390244 5.44390244,1.17073171 10.6829268,1.17073171 C15.9512195,1.17073171 20.195122,5.44390244 20.195122,10.6829268 C20.195122,15.9219512 15.9219512,20.195122 10.6829268,20.195122 Z" id="Shape" transform="translate(12.000000, 12.000000) scale(-1, 1) translate(-12.000000, -12.000000) "></path>
        </g>
    </g>
</svg>